# xmcd CD database file
#
# Track frame offsets:
#	150
#	22110
#	37567
#	54562
#	80290
#	93450
#	105877
#	116732
#	137640
#	160807
#	178467
#	203827
#	226332
#	239030
#	256857
#	273110
#	284862
#
# Disc length: 4109 seconds
#
# Revision: 10
# Processed by: cddbd v1.5.2PL0 Copyright (c) Steve Scherf et al.
# Submitted via: CDex 1.83
#
DISCID=e9100b11
DTITLE=The Oscar Peterson Trio - Night Train
DYEAR=1962
DGENRE=Jazz
TTITLE0=Happy Go Lucky Local (aka "Night Train")
TTITLE1=C Jam Blues
TTITLE2=Georgia On My Mind
TTITLE3=Bag's Groove
TTITLE4=Moten Swing
TTITLE5=Easy Does It
TTITLE6=The Honeydripper
TTITLE7=Things Ain't What They Used To Be
TTITLE8=I Got It Bad (And That Ain't Good)
TTITLE9=Band Call
TTITLE10=Hymn To Freedom
TTITLE11=Happy-Go-Lucky Local (Alt)
TTITLE12=Volare
TTITLE13=My Heart Belongs To Daddy
TTITLE14=Moten Swing (Alt)
TTITLE15=Now's the Time [Incomplete Take]
TTITLE16=This Could Be The Start Of Something
EXTD=YEAR: 1962
EXTT0=
EXTT1=
EXTT2=
EXTT3=
EXTT4=
EXTT5=
EXTT6=
EXTT7=
EXTT8=
EXTT9=
EXTT10=
EXTT11=
EXTT12=
EXTT13=
EXTT14=
EXTT15=
EXTT16=
PLAYORDER=
